<svg xmlns="http://www.w3.org/2000/svg" xmlns:xlink="http://www.w3.org/1999/xlink" x="0px" y="0px" viewBox="0 0 375.2 225.8" style="enable-background:new 0 0 375.2 225.8;" xml:space="preserve"><style type="text/css">	.st0{fill:#1F2A3D;}	.st1{fill:#DC2328;}</style><g id="Layer_1"></g><g id="Layer_2"></g><g id="Layer_3"></g><g id="Layer_4"></g><g id="Layer_5">	<path class="st0" d="M228.1,58c-4.2,12.2-16.6,19.6-29.4,17.4c4.2,8,10.4,14.8,18,19.7c14-4.7,23.6-18.3,24.4-32.1  c1.1-19.4-10.4-30.2-25.6-36.8C227,32.3,232.3,45.8,228.1,58z M301.1,216.6v2.1h74.1v-2.1H301.1z M6.9,181.8h8.8l9.8,13.9h8.2  L23,180.6c1.4-0.4,2.7-0.9,3.8-1.6c1.2-0.7,2.2-1.6,3-2.6c0.8-1,1.5-2.2,2-3.5c0.5-1.3,0.7-2.8,0.7-4.5c0-1.9-0.3-3.7-1-5.3  c-0.7-1.6-1.7-2.9-2.9-4c-1.3-1.1-2.8-1.9-4.7-2.5c-1.8-0.6-3.9-0.9-6.2-0.9H0v39.8h6.9V181.8z M6.9,162.1h10.2  c2.6,0,4.7,0.6,6.1,1.7c1.4,1.1,2.2,2.8,2.2,5c0,2.1-0.7,3.7-2.2,4.9c-1.5,1.2-3.5,1.8-6,1.8H6.9V162.1z M0,218.7h74.1v-2.1H0  V218.7z M351.3,182.8h7.9c2.2,0,4.3-0.3,6.2-0.9c1.9-0.6,3.6-1.4,5.1-2.6c1.4-1.1,2.6-2.6,3.4-4.3c0.8-1.7,1.3-3.7,1.3-5.9  c0-2-0.4-3.9-1.1-5.5c-0.7-1.6-1.7-3-3-4.2s-2.9-2.1-4.8-2.7c-1.9-0.6-4-0.9-6.3-0.9h-15.7v39.8h6.9V182.8z M351.3,162.1h8.2  c2.6,0,4.7,0.6,6.3,1.8c1.6,1.2,2.3,3,2.3,5.4c0,2.2-0.8,3.9-2.3,5.2c-1.5,1.3-3.6,2-6.3,2h-8.2V162.1z M333.7,155.8h-6.9v39.8h6.9  V155.8z M75.2,161.2c-1.8-1.9-4-3.3-6.5-4.4c-2.5-1.1-5.3-1.6-8.4-1.6c-3.1,0-5.9,0.5-8.4,1.6c-2.5,1.1-4.7,2.6-6.6,4.5  c-1.9,1.9-3.3,4.1-4.3,6.6c-1,2.5-1.5,5.2-1.5,8c0,2.8,0.5,5.5,1.5,8c1,2.5,2.4,4.7,4.3,6.5c1.8,1.9,4,3.3,6.5,4.4  c2.5,1.1,5.3,1.6,8.4,1.6c3.1,0,5.9-0.5,8.4-1.6c2.5-1.1,4.7-2.6,6.6-4.5c1.9-1.9,3.3-4.1,4.3-6.6c1-2.5,1.5-5.2,1.5-8  c0-2.8-0.5-5.5-1.5-8C78.4,165.2,77,163,75.2,161.2z M72.6,181.3c-0.7,1.7-1.6,3.2-2.8,4.5c-1.2,1.3-2.6,2.3-4.2,3  c-1.6,0.7-3.5,1.1-5.4,1.1c-2,0-3.8-0.4-5.5-1.1c-1.7-0.8-3.1-1.8-4.3-3.1c-1.2-1.3-2.1-2.8-2.8-4.5c-0.7-1.7-1-3.6-1-5.5  c0-1.9,0.3-3.8,1-5.5c0.7-1.7,1.6-3.2,2.8-4.5c1.2-1.3,2.6-2.3,4.2-3c1.6-0.7,3.5-1.1,5.4-1.1c2,0,3.8,0.4,5.5,1.1  c1.7,0.8,3.1,1.8,4.3,3.1c1.2,1.3,2.1,2.8,2.8,4.5c0.7,1.7,1,3.6,1,5.5C73.6,177.7,73.3,179.6,72.6,181.3z M207.9,162.3h12.6v33.3  h7.1v-33.3h12.6v-6.5h-32.3V162.3z M179.6,178.7h20v-6.3h-20v-10.2h22.5v-6.3h-29.5v39.8h29.7v-6.3h-22.8V178.7z M309.2,195.6h6.9  v-39.8h-6.9v16.5h-19.1v-16.5h-6.9v39.8h6.9v-16.8h19.1V195.6z M190.6,53.7c5.6-11.4,13.8-22.6,23.5-33.5  c-33.5,29.2-63.7,75.2-32.6,117.5c8.6,1.6,17.6,1.2,26.2-1.2c-27.5-24.9-30.4-51.4-19.7-77.2c-4.3,24.3,10.5,55.5,38.7,68  c6-4.4,11.1-9.9,15-16.2c0,0,0,0,0,0C208.2,105.7,190.5,81.3,190.6,53.7z M271.6,176.7c-1.1-0.9-2.4-1.7-4-2.4  c-1.6-0.6-3.5-1.2-5.6-1.8c-1.9-0.5-3.5-0.9-4.7-1.3c-1.2-0.4-2.2-0.9-2.9-1.4c-0.7-0.5-1.2-1-1.4-1.6c-0.3-0.6-0.4-1.3-0.4-2  c0-1.3,0.6-2.5,1.7-3.4c1.1-0.9,2.7-1.4,4.8-1.4c1.8,0,3.6,0.4,5.4,1.1c1.8,0.7,3.6,1.7,5.4,3l3.8-5.3c-2-1.6-4.2-2.9-6.6-3.7  c-2.3-0.9-5-1.3-7.9-1.3c-2,0-3.8,0.3-5.4,0.8c-1.7,0.5-3.1,1.3-4.3,2.4c-1.2,1-2.1,2.2-2.8,3.7c-0.7,1.4-1,3-1,4.7  c0,1.9,0.3,3.4,0.9,4.7c0.6,1.3,1.5,2.4,2.6,3.3c1.1,0.9,2.5,1.7,4.2,2.3c1.7,0.6,3.5,1.2,5.7,1.6c1.9,0.5,3.4,0.9,4.5,1.3  c1.2,0.4,2.1,0.9,2.7,1.3c0.7,0.5,1.1,1,1.4,1.6c0.2,0.6,0.4,1.2,0.4,1.9c0,1.6-0.6,2.8-1.9,3.7c-1.3,0.9-3,1.4-5.1,1.4  c-2.5,0-4.7-0.4-6.7-1.3c-2-0.9-3.9-2.2-5.9-3.8l-4.2,5c2.4,2.2,5,3.8,7.8,4.8c2.8,1,5.7,1.6,8.8,1.6c2.1,0,4-0.3,5.7-0.8  c1.7-0.5,3.2-1.3,4.5-2.3c1.2-1,2.2-2.3,2.9-3.8c0.7-1.5,1-3.2,1-5.1c0-1.7-0.3-3.1-0.8-4.4C273.5,178.7,272.7,177.6,271.6,176.7z   M165.9,155.8h-8.6l-18.9,20v-20h-6.9v39.8h6.9v-11.5l6.2-6.4l13.6,17.9h8.5L149.3,173L165.9,155.8z M114.4,188.5  c-1.7,0.9-3.8,1.4-6.3,1.4c-1.9,0-3.6-0.4-5.3-1.1c-1.6-0.7-3-1.8-4.2-3c-1.2-1.3-2.1-2.8-2.7-4.5c-0.6-1.7-1-3.6-1-5.5  c0-2,0.3-3.8,1-5.5c0.6-1.7,1.6-3.2,2.7-4.5c1.2-1.3,2.6-2.3,4.2-3c1.6-0.7,3.4-1.1,5.3-1.1c2.3,0,4.3,0.5,6.1,1.4  c1.8,0.9,3.5,2.1,5.1,3.6l4.5-5.2c-0.9-0.9-2-1.7-3-2.5c-1.1-0.8-2.2-1.4-3.5-2c-1.3-0.5-2.6-1-4.1-1.3c-1.5-0.3-3.2-0.5-5-0.5  c-3,0-5.8,0.5-8.3,1.6c-2.5,1.1-4.7,2.6-6.5,4.4c-1.8,1.9-3.2,4.1-4.2,6.6c-1,2.5-1.5,5.2-1.5,8c0,2.9,0.5,5.6,1.5,8.1  c1,2.5,2.4,4.7,4.2,6.5c1.8,1.8,3.9,3.3,6.4,4.3c2.5,1.1,5.2,1.6,8.1,1.6c1.9,0,3.6-0.2,5.1-0.5c1.5-0.3,2.9-0.8,4.2-1.4  c1.3-0.6,2.5-1.4,3.6-2.2c1.1-0.9,2.2-1.8,3.2-2.9l-4.5-4.5C117.9,186.3,116.2,187.6,114.4,188.5z"></path></g><g id="Layer_6"></g><g id="Layer_7">	<path class="st1" d="M137.5,220.6l-8.4-10.9h-2.6v15.7h2.7v-11.2l8.7,11.2h2.3v-15.7h-2.7V220.6z M159.4,209.7l-6.9,15.8h2.8  l1.6-3.8h7.4l1.6,3.8h2.9l-6.9-15.8H159.4z M158,219.3l2.7-6.3l2.7,6.3H158z M85.5,225.5h2.7v-6.4h7.9v-2.5h-7.9v-4.3h8.9v-2.5  H85.5V225.5z M192.1,220.6l-8.4-10.9h-2.6v15.7h2.7v-11.2l8.6,11.2h2.3v-15.7h-2.7V220.6z M110,225.5h2.7v-15.7H110V225.5z   M256.9,209.7l-6.9,15.8h2.8l1.6-3.8h7.4l1.6,3.8h2.9l-6.9-15.8H256.9z M255.4,219.3l2.7-6.3l2.7,6.3H255.4z M281.4,223v-13.2h-2.7  v15.7h11V223H281.4z M234.8,225.5h2.7v-15.7h-2.7V225.5z M218.6,9c-2.6-0.7-5.1,0.7-7.4,4.2c2.7-0.6,5.5,0.3,7.4,2.2  c1.9,1.9,2.8,4.7,2.2,7.4c3.6-2.3,5-4.8,4.2-7.4c4.6-4.1,7.7-9.5,9-15.5C228,1.3,222.6,4.4,218.6,9z M226.2,4.9  c0.8-0.8,2.1-0.8,2.9,0c0.8,0.8,0.8,2.1,0,2.9s-2.1,0.8-2.9,0C225.4,7,225.4,5.7,226.2,4.9z M223.5,8.9c0.4-0.4,1.2-0.4,1.6,0  c0.4,0.4,0.4,1.2,0,1.6c-0.4,0.4-1.2,0.4-1.6,0C223.1,10.1,223.1,9.3,223.5,8.9z M218.3,222.7c-0.7,0.4-1.5,0.5-2.5,0.5  c-0.7,0-1.4-0.1-2.1-0.4c-0.6-0.3-1.2-0.7-1.7-1.2c-0.5-0.5-0.8-1.1-1.1-1.8c-0.3-0.7-0.4-1.4-0.4-2.2c0-0.8,0.1-1.5,0.4-2.2  c0.3-0.7,0.6-1.3,1.1-1.8c0.5-0.5,1-0.9,1.7-1.2c0.6-0.3,1.3-0.4,2.1-0.4c0.9,0,1.7,0.2,2.4,0.5c0.7,0.4,1.4,0.8,2,1.4l1.8-2  c-0.4-0.4-0.8-0.7-1.2-1c-0.4-0.3-0.9-0.6-1.4-0.8c-0.5-0.2-1-0.4-1.6-0.5c-0.6-0.1-1.2-0.2-2-0.2c-1.2,0-2.3,0.2-3.3,0.6  c-1,0.4-1.8,1-2.6,1.8c-0.7,0.7-1.3,1.6-1.7,2.6c-0.4,1-0.6,2-0.6,3.2c0,1.1,0.2,2.2,0.6,3.2c0.4,1,1,1.8,1.7,2.6  c0.7,0.7,1.6,1.3,2.5,1.7c1,0.4,2,0.6,3.2,0.6c0.7,0,1.4-0.1,2-0.2c0.6-0.1,1.2-0.3,1.7-0.6c0.5-0.2,1-0.5,1.4-0.9  c0.4-0.3,0.9-0.7,1.3-1.2l-1.8-1.8C219.7,221.8,219,222.3,218.3,222.7z M157.4,32.8c-26.1,19.2-31.7,55.8-12.5,81.9  c5.9,8,13.5,14.1,21.9,18.2c-4.8-15.5-5.2-32.1-1.3-47.9c-4.6,8.1-7.7,16.9-9.2,26.1c-13.8-17-16.1-40.7-5.7-60  C161,31.7,182,20.5,203.8,22.6C188.2,19.4,171.2,22.6,157.4,32.8z"></path></g></svg>